<?xml version="1.0" encoding="utf-8"?>
<!-- Generator: Adobe Illustrator 14.0.0, SVG Export Plug-In . SVG Version: 6.00 Build 43363)  -->
<!DOCTYPE svg PUBLIC "-//W3C//DTD SVG 1.1//EN" "http://www.w3.org/Graphics/SVG/1.1/DTD/svg11.dtd">
<svg version="1.1" id="Layer_1" xmlns="http://www.w3.org/2000/svg" xmlns:xlink="http://www.w3.org/1999/xlink" x="0px" y="0px"
	 width="169.711px" height="169.529px" viewBox="0 0 169.711 169.529" enable-background="new 0 0 169.711 169.529"
	 xml:space="preserve">
<g>
	<g>
		<circle fill="#1E88C9" cx="84.855" cy="84.763" r="83.472"/>
		<g>
			<g>
				<g>
					<path display="none" fill="#292C33" d="M273.969,164.839c-0.729,0.078-1.467,0.129-2.201,0.156
						c-8.505,0.305-16.627-2.727-22.875-8.541c-6.248-5.813-9.857-13.695-10.164-22.199c-0.251-6.967,1.454-12.643,5.522-18.406
						l0.345-0.479c0.004,0.605,0.025,1.404,0.107,2.168c0.329,3.139,1.229,5.098,2.27,7.369c0.221,0.477,0.446,0.973,0.678,1.496
						c0.854,1.947,1.738,3.959,1.916,6.141c0.102,1.279-0.021,2.828-0.141,4.326c-0.101,1.268-0.206,2.568-0.167,3.646
						c0.376,10.461,9.19,18.66,19.651,18.283c0.435-0.016,0.875-0.047,1.307-0.094c9.877-1.035,17.111-10.176,16.752-20.105
						c-0.03-0.881,0.195-3.611,0.369-4.422c0.502-2.355,1.582-4.568,2.627-6.705c1.838-3.762,2.266-7.465,1.436-12.869
						c-0.351-2.299-0.268-3.852-0.17-4.639l0.96,1.051c5.655,5.822,10.036,13.15,10.317,20.939
						C303.11,148.655,290.574,163.098,273.969,164.839L273.969,164.839z M243.738,119.19l-0.44,0.844
						c-2.165,4.352-3.125,8.982-2.938,14.162c0.291,8.068,3.714,15.551,9.643,21.066c5.93,5.518,13.637,8.393,21.707,8.102
						c0.695-0.025,1.397-0.074,2.088-0.146c15.757-1.652,27.651-15.357,27.081-31.203c-0.229-6.336-3.761-12.764-7.614-17.777
						l-1.012-1.189l0.465,1.471c1.635,5.449,0.717,9.566-1.287,13.67c-1.049,2.146-2.038,4.172-2.496,6.33
						c-0.15,0.701-0.361,3.258-0.332,4.023c0.387,10.781-7.49,20.664-18.215,21.787c-0.469,0.051-0.945,0.082-1.42,0.1
						c-11.356,0.41-20.93-8.498-21.337-19.854c-0.044-1.174,0.066-2.523,0.169-3.828c0.115-1.439,0.234-2.922,0.143-4.072
						c-0.156-1.906-0.948-3.709-1.783-5.615c-0.179-0.406-0.365-0.805-0.551-1.205c-0.801-1.713-1.629-3.486-1.719-5.695
						L243.738,119.19z"/>
				</g>
			</g>
		</g>
		<g>
			<path fill="#FFFFFF" d="M91.38,148.143c-1.412,0.148-2.854,0.248-4.283,0.301c-16.562,0.596-32.381-5.313-44.551-16.631
				c-12.164-11.32-19.196-26.672-19.792-43.236c-0.491-13.566,2.83-24.621,10.753-35.844l0.672-0.931
				c0.007,1.175,0.051,2.732,0.209,4.22c0.641,6.111,2.393,9.929,4.42,14.351c0.431,0.93,0.869,1.896,1.318,2.914
				c1.666,3.792,3.389,7.71,3.73,11.959c0.201,2.496-0.037,5.509-0.271,8.423c-0.195,2.469-0.401,5.006-0.324,7.105
				c0.732,20.373,17.898,36.34,38.27,35.605c0.848-0.031,1.704-0.088,2.547-0.182c19.232-2.014,33.324-19.814,32.625-39.158
				c-0.06-1.717,0.381-7.029,0.721-8.611c0.975-4.586,3.08-8.895,5.111-13.055c3.581-7.328,4.412-14.538,2.797-25.064
				c-0.682-4.479-0.52-7.503-0.328-9.035l1.869,2.047c11.014,11.336,19.546,25.607,20.092,40.78
				C148.135,116.624,123.723,144.751,91.38,148.143L91.38,148.143z M32.507,59.237l-0.857,1.645
				c-4.217,8.474-6.086,17.496-5.721,27.582c0.566,15.717,7.233,30.287,18.777,41.025c11.547,10.748,26.561,16.348,42.277,15.781
				c1.354-0.051,2.721-0.143,4.064-0.285c30.688-3.217,53.853-29.91,52.742-60.769c-0.445-12.339-7.324-24.86-14.828-34.622
				l-1.973-2.314l0.906,2.858c3.184,10.614,1.398,18.635-2.504,26.625c-2.045,4.183-3.971,8.125-4.862,12.328
				c-0.295,1.365-0.704,6.344-0.649,7.836c0.754,21-14.586,40.244-35.472,42.434c-0.915,0.098-1.845,0.158-2.769,0.197
				c-22.115,0.795-40.756-16.553-41.553-38.668c-0.084-2.285,0.129-4.916,0.331-7.459c0.222-2.801,0.457-5.689,0.274-7.928
				c-0.302-3.714-1.844-7.225-3.473-10.937c-0.347-0.792-0.709-1.567-1.072-2.347c-1.557-3.338-3.17-6.79-3.348-11.093
				L32.507,59.237z"/>
			<g>
				<g>
					<path fill="#FFFFFF" d="M131.99,83.671c-0.536,0-1.046-0.309-1.279-0.828c-0.317-0.706-0.001-1.536,0.704-1.853
						c9.609-4.312,9.758-9.583,9.756-9.637c-0.018-0.773,0.595-1.416,1.369-1.434c0.766,0.026,1.416,0.595,1.435,1.369
						c0.007,0.288,0.034,7.125-11.411,12.26C132.376,83.631,132.182,83.671,131.99,83.671L131.99,83.671z"/>
				</g>
			</g>
			<g>
				<g>
					<path fill="#FFFFFF" d="M131.626,95.606c-0.662,0-1.252-0.471-1.377-1.145c-0.143-0.76,0.359-1.494,1.119-1.637
						c9.752-1.826,12.506-9.231,12.617-9.546c0.261-0.726,1.062-1.109,1.789-0.852c0.729,0.258,1.112,1.053,0.857,1.782
						c-0.132,0.377-3.35,9.237-14.747,11.372C131.798,95.598,131.712,95.606,131.626,95.606L131.626,95.606z"/>
				</g>
			</g>
			<g>
				<g>
					<path fill="#FFFFFF" d="M130.776,107.823c-0.768,0-1.395-0.619-1.402-1.387c-0.007-0.775,0.613-1.41,1.389-1.418
						c10.474-0.104,12.247-8.938,12.318-9.314c0.142-0.76,0.875-1.262,1.635-1.119c0.762,0.141,1.263,0.875,1.121,1.637
						c-0.022,0.113-2.295,11.475-15.047,11.602C130.786,107.823,130.78,107.823,130.776,107.823L130.776,107.823z"/>
				</g>
			</g>
			<g>
				<g>
					<path fill="#FFFFFF" d="M32.698,85.512c-0.299,0-0.6-0.094-0.854-0.291c-7.224-5.554-7.594-11.598-7.605-11.852
						c-0.036-0.774,0.561-1.431,1.334-1.466c0.775-0.025,1.426,0.556,1.467,1.323c0.014,0.221,0.396,5.068,6.513,9.772
						c0.614,0.473,0.729,1.354,0.257,1.966C33.534,85.325,33.118,85.512,32.698,85.512L32.698,85.512z"/>
				</g>
			</g>
			<g>
				<g>
					<path fill="#FFFFFF" d="M31.097,93.372c-0.19,0-0.384-0.039-0.569-0.121c-8.09-3.607-7.55-10.5-7.522-10.792
						c0.07-0.771,0.759-1.344,1.524-1.266c0.768,0.07,1.334,0.748,1.268,1.516c-0.018,0.233-0.314,5.222,5.872,7.98
						c0.707,0.316,1.024,1.146,0.71,1.852C32.146,93.061,31.635,93.372,31.097,93.372L31.097,93.372z"/>
				</g>
			</g>
			<g>
				<g>
					<path fill="#FFFFFF" d="M29.64,102.173c-0.084,0-0.17-0.008-0.255-0.023c-6.029-1.105-6.482-9.949-6.498-10.326
						c-0.035-0.773,0.565-1.428,1.339-1.461c0.755-0.043,1.427,0.564,1.462,1.336l0,0c0.002,0.07,0.428,7.002,4.203,7.695
						c0.763,0.139,1.266,0.869,1.125,1.631C30.893,101.7,30.303,102.173,29.64,102.173L29.64,102.173z"/>
				</g>
			</g>
			<g>
				<g>
					<path fill="#FFFFFF" d="M127.577,120.477c-0.108,0-0.217,0-0.328-0.002c-0.772-0.012-1.392-0.646-1.381-1.422
						c0.01-0.766,0.636-1.383,1.4-1.383c0.008,0,0.014,0,0.02,0c10.316,0.133,11.783-7.402,11.841-7.723
						c0.137-0.76,0.857-1.277,1.621-1.137c0.759,0.133,1.271,0.848,1.142,1.611C141.875,110.522,140.049,120.477,127.577,120.477
						L127.577,120.477z"/>
				</g>
			</g>
			<path fill="#FFFFFF" d="M73.559,129.286c-0.085-0.014-0.168-0.025-0.251-0.039c-0.083-0.018-0.165-0.033-0.248-0.055
				c-0.083-0.02-0.165-0.039-0.248-0.063c-0.083-0.021-0.165-0.045-0.246-0.07c-1.333-0.408-2.499-1.205-3.464-2.295
				c-0.966-1.088-1.73-2.471-2.266-4.051c-0.536-1.582-0.842-3.361-0.885-5.244c-0.045-1.885,0.172-3.875,0.684-5.877
				c0.477-1.881,1.172-3.611,2.023-5.135c0.854-1.525,1.866-2.846,2.977-3.91c1.113-1.064,2.323-1.871,3.574-2.371
				c1.252-0.498,2.545-0.686,3.816-0.512c0.084,0.012,0.167,0.025,0.25,0.039c0.082,0.016,0.165,0.031,0.248,0.049
				c0.082,0.018,0.166,0.037,0.246,0.059c0.082,0.021,0.166,0.043,0.248,0.066c1.34,0.395,2.514,1.18,3.489,2.266
				c0.977,1.084,1.753,2.469,2.298,4.055c0.547,1.59,0.858,3.381,0.905,5.283c0.046,1.898-0.174,3.908-0.691,5.928
				c-0.483,1.895-1.188,3.631-2.052,5.16c-0.863,1.531-1.887,2.85-3.006,3.908c-1.121,1.057-2.339,1.855-3.594,2.34
				C76.116,129.303,74.825,129.477,73.559,129.286 M79.444,96.505c-1.625-0.221-3.269-0.006-4.855,0.584
				c-1.582,0.59-3.11,1.553-4.506,2.826c-1.395,1.271-2.656,2.854-3.717,4.682c-1.057,1.83-1.91,3.906-2.486,6.172
				c-0.617,2.422-0.857,4.836-0.768,7.127c0.091,2.291,0.514,4.459,1.227,6.391c0.715,1.932,1.719,3.629,2.973,4.975
				c1.256,1.346,2.759,2.34,4.473,2.867c0.111,0.035,0.224,0.066,0.336,0.096c0.113,0.031,0.227,0.059,0.338,0.086
				c0.113,0.025,0.226,0.047,0.34,0.068c0.111,0.023,0.226,0.043,0.339,0.061c1.621,0.244,3.265,0.053,4.853-0.514
				c1.594-0.568,3.131-1.512,4.541-2.775s2.691-2.844,3.766-4.682c1.076-1.836,1.945-3.932,2.531-6.217
				c0.629-2.449,0.873-4.889,0.779-7.203c-0.096-2.316-0.529-4.504-1.258-6.447c-0.729-1.945-1.752-3.645-3.025-4.984
				c-1.271-1.338-2.793-2.318-4.52-2.822c-0.112-0.033-0.226-0.064-0.338-0.092c-0.113-0.029-0.227-0.055-0.339-0.08
				c-0.114-0.023-0.228-0.043-0.341-0.064C79.672,96.538,79.559,96.52,79.444,96.505"/>
			<path fill="#FFFFFF" d="M88.798,92.126c-0.502-0.066-1.016-0.146-1.538-0.238s-1.054-0.197-1.595-0.313
				c-0.541-0.117-1.09-0.246-1.646-0.389c-0.559-0.141-1.125-0.295-1.7-0.459c-1.825-0.529-3.427-1.094-4.815-1.662
				s-2.567-1.141-3.551-1.688s-1.771-1.066-2.381-1.527c-0.607-0.463-1.036-0.867-1.299-1.182l-0.453-0.549l0.65-0.228
				c0.264-0.092,0.608-0.176,1.031-0.243c0.424-0.064,0.926-0.115,1.504-0.138c0.576-0.024,1.229-0.021,1.955,0.015
				s1.525,0.105,2.395,0.221c0.5,0.065,1.012,0.142,1.532,0.233c0.521,0.09,1.052,0.191,1.591,0.307
				c0.538,0.115,1.086,0.242,1.641,0.379c0.556,0.138,1.119,0.289,1.688,0.45c1.831,0.524,3.44,1.088,4.841,1.659
				c1.402,0.57,2.598,1.148,3.596,1.699c1,0.553,1.803,1.078,2.423,1.547s1.058,0.879,1.325,1.199l0.465,0.557l-0.666,0.227
				c-0.269,0.094-0.619,0.176-1.051,0.24c-0.43,0.066-0.94,0.115-1.527,0.137c-0.588,0.021-1.251,0.018-1.988-0.021
				C90.487,92.317,89.678,92.243,88.798,92.126 M77.606,80.585c-1.082-0.14-2.225-0.242-3.343-0.267
				c-1.118-0.023-2.21,0.032-3.196,0.207c-0.982,0.175-1.857,0.471-2.537,0.927c-0.682,0.459-1.168,1.078-1.378,1.903
				c-0.294,1.156,0.087,2.28,0.913,3.34c0.83,1.063,2.105,2.063,3.605,2.975c1.502,0.912,3.229,1.732,4.953,2.436
				s3.447,1.287,4.937,1.719c0.593,0.17,1.183,0.33,1.769,0.477c0.586,0.148,1.167,0.285,1.743,0.408
				c0.577,0.125,1.147,0.236,1.71,0.336c0.564,0.1,1.121,0.188,1.671,0.262c0.378,0.049,0.749,0.096,1.113,0.133
				c0.364,0.039,0.723,0.072,1.073,0.096c0.35,0.025,0.692,0.045,1.025,0.057c0.334,0.012,0.66,0.018,0.976,0.014
				c0.96-0.006,1.816-0.074,2.57-0.207c0.755-0.131,1.406-0.324,1.955-0.58c0.548-0.252,0.991-0.57,1.331-0.947
				c0.339-0.375,0.572-0.814,0.701-1.313c0.299-1.168-0.096-2.309-0.947-3.387c-0.854-1.074-2.162-2.088-3.693-3.008
				c-1.531-0.917-3.283-1.743-5.025-2.445c-1.74-0.701-3.471-1.278-4.959-1.706c-0.145-0.04-0.443-0.122-0.861-0.229
				s-0.957-0.24-1.582-0.382c-0.625-0.141-1.336-0.291-2.102-0.433C79.262,80.828,78.444,80.695,77.606,80.585"/>
		</g>
	</g>
</g>
</svg>
